<?xml version="1.0" encoding="utf-8"?>
<!-- Generator: Adobe Illustrator 23.1.0, SVG Export Plug-In . SVG Version: 6.00 Build 0)  -->
<svg version="1.1" id="Layer_1" xmlns="http://www.w3.org/2000/svg" xmlns:xlink="http://www.w3.org/1999/xlink" x="0px" y="0px"
	 viewBox="0 0 1440 400" style="enable-background:new 0 0 1440 400;" xml:space="preserve">
<style type="text/css">
	.st0{fill:#D4D4D4;}
	.st1{fill:#569CD6;}
	.st2{fill:#CE9178;}
</style>
<g>
	<path class="st0" d="M1407.6,220h-36.8c-3.5,0-6.6,2.2-7.6,5.6l-30.9,96c-1.7,5.2,2.2,10.4,7.6,10.4h16.2c2.9,0,5.7-1.6,7.1-4.2
		l51.4-96C1417.5,226.4,1413.7,220,1407.6,220z"/>
	<circle class="st0" cx="1391" cy="130" r="30"/>
</g>
<path class="st0" d="M377,260h-8v-85.3c0-39.1-18.9-57.3-34.7-65.6c-17.4-9.1-36.2-9.1-45.3-9.1c-40.5,0-68.2,14.3-69.3,14.9
	c-9.8,5.1-13.5,17.2-8.4,27c5.1,9.8,17.2,13.5,27,8.4c0.2-0.1,20.5-10.3,50.7-10.3c25.9,0,40,5.5,40,34.7v2.1
	c-9.5-2.8-21.3-4.9-36-4.9c-46.2,0-98.4,22.9-103.8,65.4l-0.1,1.1c-1.1,15.9,3.4,29.8,13.2,40.3c13.1,14,34.2,21.1,62.7,21.1
	c23.3,0,45.1-3.7,64-10.8c4,10.8,16,10.8,16,10.8h32c11,0,20-9,20-20S388,260,377,260z M265,260c-16.1,0-28.6-3.1-33.5-8.4
	c-1.4-1.5-2.9-3.9-2.6-9.6c2.6-15.8,32.9-30.1,64.1-30.1c17.5,0,28.4,4,36,7.8v25.5C307,257.9,280.1,260,265,260z"/>
<path class="st0" d="M589.9,242.1c-4.2-2.1-12.6-4.5-22.2,2.7C551,257.4,528.7,260,513,260c-0.2,0-0.5,0-0.9,0
	c-8.5,0.2-29.7-1-44-15c-6.4-6.2-10.7-14.6-13.1-25.1h130c11,0,20-9,20-20c0-30.7-9.2-55-27.2-72.1c-25.2-23.8-57.9-24.2-64.9-23.9
	c-7.2-0.1-45.7,0.3-73,26.3c-17.9,17-26.9,40.5-26.9,69.7c0,31.2,9.1,56,27.1,73.6c23.9,23.4,56.1,26.4,70.7,26.4c0.7,0,1.4,0,2,0
	h0.2c21.6,0,52.7-4,78.1-22.8c5.9-3.5,9.8-9.9,9.8-17.2C601,252.4,596.7,245.5,589.9,242.1z M467.3,159.4
	c16.6-16,43.4-15.5,44.7-15.4c0.8,0,1.2,0.1,2,0c1.4,0,22.4-0.3,36.5,13.2c5.9,5.7,10,13.3,12.3,22.8H455.4
	C457.7,171.7,461.7,164.9,467.3,159.4z"/>
<path class="st0" d="M1038,104h-48c-9.9,0-18,8.1-18,18s8.1,18,18,18h2.1l-46.2,104.4l-47-104.4h3.1c9.9,0,18-8.1,18-18
	s-8.1-18-18-18h-48c-9.9,0-18,8.1-18,18s8.1,18,18,18h1.1l69.1,153.5L901.8,344H860c-11,0-20,9-20,20s9,20,20,20h104
	c11,0,20-9,20-20s-9-20-20-20h-18.5l90.3-204h2.1c9.9,0,18-8.1,18-18S1047.9,104,1038,104z"/>
<path class="st1" d="M60,100c-11.3,0-20.4,9.4-20,20.7c0.4,10.8,9.6,19.3,20.5,19.3H120v140c0,14.1-3.2,60-45,60
	c-0.1,0-8.7-0.2-17.5-3.7c-13.7-5.5-16.7-13.4-17.8-19.7c-1.9-10.9-12.2-18.2-23.1-16.3c-10.9,1.9-18.2,12.2-16.3,23.1
	C8.1,369,52.6,380,75,380c50.8,0,85-40.2,85-100V108c0-4.4-3.6-8-8-8H60z"/>
<circle class="st1" cx="128" cy="52" r="24"/>
<g>
	<path class="st0" d="M1186,265.4c0-2.8-1.9-5.2-4.6-5.8c-36.2-8.6-63.4-44.8-63.4-88.1s27.2-79.4,63.4-88.1
		c2.7-0.6,4.6-3.1,4.6-5.8V49.1c0-3.7-3.4-6.6-7-5.9c-57.2,9.9-101,63.7-101,128.4s43.8,118.5,101,128.4c3.7,0.6,7-2.2,7-5.9V265.4z
		"/>
	<path class="st0" d="M1210,49.1v28.6c0,2.8,1.9,5.2,4.6,5.8c36.2,8.6,63.4,44.8,63.4,88.1s-27.2,79.4-63.4,88.1
		c-2.7,0.6-4.6,3.1-4.6,5.8v28.6c0,3.7,3.4,6.6,7,5.9c57.2-9.9,101-63.7,101-128.4S1274.2,53,1217,43.1
		C1213.4,42.5,1210,45.3,1210,49.1z"/>
</g>
<path class="st2" d="M819.6,264H812v-80c0-17.2-6-34.5-16.4-47.5C783,120.7,764.6,112,744,112c-19.9,0-37.6,4.8-52,12.5V42
	c0-0.3,0-0.7-0.1-1c0-0.3,0.1-0.7,0.1-1c0-11-9-20-20-20h-32c-11,0-20,9-20,20s9,20,20,20l0,0l0,0h12v204h-8c-9.9,0-18,8.1-18,18
	s8.1,18,18,18h56c9.9,0,18-8.1,18-18s-8.1-18-18-18h-8v-84c0-7.2,17.9-28,52-28c23,0,28,23.1,28,32v80h-6.6
	c-9.8,0-18.1,7.6-18.4,17.3c-0.4,10.2,7.8,18.7,18,18.7h55c10.2,0,18.4-8.4,18-18.7C837.6,271.6,829.3,264,819.6,264z"/>
</svg>
